<svg width="40" height="34" viewBox="0 0 40 34" fill="none" xmlns="http://www.w3.org/2000/svg">
<path d="M21.8835 19.1213C22.4461 18.5587 22.7622 17.7956 22.7622 17C22.7622 16.2044 22.4461 15.4413 21.8835 14.8787C21.3209 14.3161 20.5579 14 19.7622 14C18.9666 14 18.2035 14.3161 17.6409 14.8787C17.0783 15.4413 16.7622 16.2044 16.7622 17C16.7622 17.7956 17.0783 18.5587 17.6409 19.1213C18.2035 19.6839 18.9666 20 19.7622 20C20.5579 20 21.3209 19.6839 21.8835 19.1213Z" stroke="#8E92A2" stroke-width="2" stroke-linecap="round" stroke-linejoin="round"/>
<path d="M10 17C11.274 12.943 15.065 10 19.542 10C24.02 10 27.81 12.943 29.084 17C27.81 21.057 24.02 24 19.542 24C15.065 24 11.274 21.057 10 17Z" stroke="#8E92A2" stroke-width="2" stroke-linecap="round" stroke-linejoin="round"/>
</svg>
