<svg width="40" height="38" viewBox="0 0 40 38" fill="none" xmlns="http://www.w3.org/2000/svg">
<path d="M21.6372 25.825C21.0191 25.9419 20.3913 26.0005 19.7622 26C15.2842 26 11.4942 23.057 10.2192 19C10.5625 17.9081 11.0912 16.8835 11.7822 15.971M17.6402 16.879C18.2029 16.3163 18.966 16.0002 19.7617 16.0002C20.5575 16.0002 21.3206 16.3163 21.8832 16.879C22.4459 17.4417 22.762 18.2048 22.762 19.0005C22.762 19.7962 22.4459 20.5593 21.8832 21.122M17.6402 16.879L21.8832 21.122M17.6402 16.879L21.8822 21.12M21.8832 21.122L25.1742 24.412M17.6422 16.88L14.3522 13.59M14.3522 13.59L10.7622 10M14.3522 13.59C15.9646 12.5496 17.8433 11.9974 19.7622 12C24.2402 12 28.0302 14.943 29.3052 19C28.6013 21.2305 27.1396 23.1446 25.1732 24.411M14.3522 13.59L25.1732 24.411M25.1732 24.411L28.7622 28" stroke="black" stroke-width="2" stroke-linecap="round" stroke-linejoin="round"/>
</svg>
