<svg width="38" height="38" viewBox="0 0 38 38" fill="none" xmlns="http://www.w3.org/2000/svg">
<path d="M10 10H12L12.4 12M12.4 12H28L24 20H14M12.4 12L14 20M14 20L11.707 22.293C11.077 22.923 11.523 24 12.414 24H24M24 24C23.4696 24 22.9609 24.2107 22.5858 24.5858C22.2107 24.9609 22 25.4696 22 26C22 26.5304 22.2107 27.0391 22.5858 27.4142C22.9609 27.7893 23.4696 28 24 28C24.5304 28 25.0391 27.7893 25.4142 27.4142C25.7893 27.0391 26 26.5304 26 26C26 25.4696 25.7893 24.9609 25.4142 24.5858C25.0391 24.2107 24.5304 24 24 24ZM16 26C16 26.5304 15.7893 27.0391 15.4142 27.4142C15.0391 27.7893 14.5304 28 14 28C13.4696 28 12.9609 27.7893 12.5858 27.4142C12.2107 27.0391 12 26.5304 12 26C12 25.4696 12.2107 24.9609 12.5858 24.5858C12.9609 24.2107 13.4696 24 14 24C14.5304 24 15.0391 24.2107 15.4142 24.5858C15.7893 24.9609 16 25.4696 16 26Z" stroke="black" stroke-width="2" stroke-linecap="round" stroke-linejoin="round"/>
</svg>
